<svg width="16" height="16" viewBox="0 0 16 16" fill="none" xmlns="http://www.w3.org/2000/svg">
<path d="M7.98889 0C4.75549 0 2.125 2.63049 2.125 5.86389C2.125 7.34924 3.06091 9.44788 4.90686 12.1016C6.2561 14.0414 7.58313 15.5425 7.63904 15.6055L7.98889 16L8.33887 15.6055C8.39465 15.5425 9.72168 14.0414 11.071 12.1016C12.9169 9.44788 13.8529 7.34924 13.8529 5.86389C13.8529 2.63049 11.2223 0 7.98889 0ZM10.3082 11.5598C9.39624 12.8718 8.47449 14.001 7.98889 14.577C7.50452 14.0026 6.58618 12.8777 5.67481 11.5674C3.96448 9.10864 3.06042 7.13635 3.06042 5.86389C3.06042 3.14636 5.27136 0.935425 7.98889 0.935425C10.7065 0.935425 12.9174 3.14636 12.9174 5.86389C12.9174 7.13501 12.0151 9.10461 10.3082 11.5598Z" fill="#7D6C65"/>
<path d="M7.98816 2.16724C6.07983 2.16724 4.52734 3.71973 4.52734 5.62805C4.52734 7.53638 6.07983 9.08899 7.98816 9.08899C9.89661 9.08899 11.4491 7.53638 11.4491 5.62805C11.4491 3.71973 9.89661 2.16724 7.98816 2.16724ZM7.98816 8.15356C6.5957 8.15356 5.46277 7.02063 5.46277 5.62805C5.46277 4.2356 6.5957 3.10266 7.98816 3.10266C9.38074 3.10266 10.5137 4.2356 10.5137 5.62805C10.5137 7.02063 9.38074 8.15356 7.98816 8.15356Z" fill="#7D6C65"/>
</svg>
